<svg xmlns="http://www.w3.org/2000/svg" xmlns:svg="http://www.w3.org/2000/svg" id="svg4205" width="210mm" height="297mm" version="1.1" viewBox="0 0 744.094 1052.362"><metadata id="metadata4210"/><g id="layer2"><path style="fill:#000;fill-opacity:1;fill-rule:evenodd;stroke:none;stroke-width:1px;stroke-linecap:butt;stroke-linejoin:miter;stroke-opacity:1" id="path4765" d="m 273.75134,603.26274 c 0,0 -25.58526,-0.008 -41.78705,-0.008 -38.87919,0 -70.91881,-39.33838 -71.25,-72.67857 -0.54513,-54.87705 42.96656,-81.07143 70.35714,-81.07143 31.97767,0 80.27855,0 122.5,0 64.60813,0 140.95594,-31.4733 165,-98.12763 12.42875,-34.45467 61.07143,-26.00282 61.07143,6.07143 0,42.11446 0.17857,256.66873 0.17857,338.21691 0,28.86296 -43.32507,38.46481 -57.67857,13.12501 -54.53742,-96.28087 -163.57143,-103.57143 -163.57143,-103.57143 0,0 0,0 0.35714,83.21428 0.0911,21.22191 -47.84807,43.6227 -58.21428,7.85715 -26.96295,-93.02772 -26.96295,-93.02772 -26.96295,-93.02772 z"/></g></svg>